<?xml version="1.0" ?><svg id="Layer_1" style="enable-background:new 0 0 64 64;" version="1.1" viewBox="0 0 64 64" xml:space="preserve" xmlns="http://www.w3.org/2000/svg" xmlns:xlink="http://www.w3.org/1999/xlink"><style type="text/css">
	.st0{fill:#57CEF3;}
	.st1{fill-rule:evenodd;clip-rule:evenodd;fill:#0779E4;}
	.st2{fill-rule:evenodd;clip-rule:evenodd;fill:#393E46;}
	.st3{fill:#FFFFFF;}
	.st4{fill:#ACBDC5;}
</style><g id="Facebook"><circle class="st0" cx="32" cy="32" r="29"/><path class="st1" d="M32,4C16.5,4,4,16.5,4,32c0,15.5,12.5,20,28,20s28-4.5,28-20h2c0,17.7-19.5,32-30,32C14.3,64,0,49.7,0,32   C0,14.3,14.3,0,32,0V4z"/><path class="st2" d="M24.7,0.8c4.3-1,8.7-1.1,13-0.3c4.3,0.8,8.4,2.4,12.1,4.9c3.6,2.4,6.8,5.6,9.1,9.2c2.4,3.7,4,7.8,4.7,12.1   c0.7,4.3,0.5,8.7-0.5,13c-1.1,4.2-3,8.2-5.6,11.7c-2.7,3.5-6,6.4-9.8,8.5c-3.8,2.1-8,3.5-12.4,3.9l-0.4-4c3.8-0.4,7.5-1.5,10.8-3.4   c3.3-1.9,6.3-4.4,8.6-7.4s4-6.5,4.9-10.2c0.9-3.7,1.1-7.6,0.4-11.4c-0.6-3.8-2-7.4-4.1-10.6s-4.8-6-8-8.1C44.3,6.6,40.7,5.1,37,4.4   c-3.8-0.7-7.6-0.6-11.4,0.3L24.7,0.8z"/><path class="st3" d="M36,40v14h-8V40h-8v-8h8V22c0-5.5,4.5-10,10-10h0.7c2.2,0,4.4,0.3,6.5,0.8L46,13v7h-5c-2.8,0-5,2.2-5,5v7h10   l-2,8H36z"/><path class="st4" d="M36,63.8c-1.3,0.2-2.6,0.2-4,0.2c-1.4,0-2.7-0.1-4-0.2V51.9c1.3,0.1,2.6,0.1,4,0.1c1.4,0,2.7,0,4-0.1V63.8z"/></g></svg>