<?xml version="1.0" ?><svg id="Layer_1" style="enable-background:new 0 0 64 64;" version="1.1" viewBox="0 0 64 64" xml:space="preserve" xmlns="http://www.w3.org/2000/svg" xmlns:xlink="http://www.w3.org/1999/xlink"><style type="text/css">
	.st0{fill:#57CEF3;}
	.st1{fill:#0077B5;}
	.st2{fill-rule:evenodd;clip-rule:evenodd;fill:#314A52;}
	.st3{fill:#FFFFFF;}
	.st4{fill:#ACBDC5;}
</style><g id="LinkedIn"><rect class="st0" height="58" width="58" x="3" y="3"/><path class="st1" d="M8,0C3.6,0,0,3.6,0,8v48c0,4.4,3.6,8,8,8h44l9-4V20h-1c0,12.2-7.7,22.8-19,28.2c-3.5,2.3-9.8,3.8-17,3.8   c-11,0-20-3.6-20-8V8c0-2.2,1.8-4,4-4h12V0H8z"/><path class="st2" d="M16,0h40c4.4,0,8,3.6,8,8v48c0,4.4-3.6,8-8,8h-8v-4h8c2.2,0,4-1.8,4-4V8c0-2.2-1.8-4-4-4H16V0z"/><path class="st3" d="M21,16c0,2.8-2.2,5-5,5c-2.8,0-5-2.2-5-5c0-2.8,2.2-5,5-5C18.8,11,21,13.2,21,16z M12,24v27.5l8,0.5V24H12z    M32,24h-8v28h8V38c0-3.3,2.7-6,6-6c3.3,0,6,2.7,6,6v10h8V34c0-5.5-4.5-10-10-10h-0.6c-3.4,0-6.7,1.5-9,4L32,28.5V24z"/><path class="st4" d="M32,51.3V52h-8C26.8,52,29.6,51.8,32,51.3z M44,52h8V40.1c-2.3,2.5-5,4.7-8,6.5V52z M20,52v-0.2   c-3-0.2-5.7-0.7-8-1.4V52H20z"/></g></svg>